<svg xmlns="http://www.w3.org/2000/svg" width="1200" height="630" viewBox="0 0 1200 630">
  <defs>
    <radialGradient id="g1" cx="0" cy="0" r="1" gradientTransform="translate(180 120) rotate(35) scale(520 280)" gradientUnits="userSpaceOnUse">
      <stop stop-color="#efb47d" stop-opacity=".9"/>
      <stop offset="1" stop-color="#efb47d" stop-opacity="0"/>
    </radialGradient>
    <radialGradient id="g2" cx="0" cy="0" r="1" gradientTransform="translate(1080 40) rotate(145) scale(520 320)" gradientUnits="userSpaceOnUse">
      <stop stop-color="#79b8bd" stop-opacity=".9"/>
      <stop offset="1" stop-color="#79b8bd" stop-opacity="0"/>
    </radialGradient>
  </defs>
  <rect width="1200" height="630" fill="#f6f1e8"/>
  <rect x="34" y="34" width="1132" height="562" rx="36" fill="#fffaf3" stroke="#d8cfc1"/>
  <rect x="80" y="92" width="1040" height="446" rx="30" fill="url(#g1)"/>
  <rect x="80" y="92" width="1040" height="446" rx="30" fill="url(#g2)"/>
  <g fill="#1e2c29">
    <text x="108" y="170" font-family="Sora, Arial, sans-serif" font-size="30" font-weight="800" letter-spacing="4">BHARATCLAW</text>
    <text x="108" y="270" font-family="Sora, Arial, sans-serif" font-size="72" font-weight="800">Chat-First Lead</text>
    <text x="108" y="350" font-family="Sora, Arial, sans-serif" font-size="72" font-weight="800">Management SaaS</text>
    <text x="108" y="430" font-family="Manrope, Arial, sans-serif" font-size="34" fill="#5d6b65">Capture every message. Follow up automatically.</text>
    <text x="108" y="480" font-family="Manrope, Arial, sans-serif" font-size="34" fill="#5d6b65">Keep the owner in control.</text>
  </g>
  <rect x="838" y="146" width="220" height="320" rx="28" fill="#ffffff" stroke="#d6cec1"/>
  <rect x="866" y="188" width="148" height="54" rx="18" fill="#e9f3f4"/>
  <rect x="904" y="207" width="72" height="16" rx="8" fill="#135d66"/>
  <rect x="866" y="270" width="170" height="72" rx="22" fill="#f6f1e8"/>
  <rect x="884" y="292" width="132" height="12" rx="6" fill="#7b8c86"/>
  <rect x="884" y="316" width="90" height="12" rx="6" fill="#7b8c86"/>
  <rect x="904" y="364" width="132" height="72" rx="22" fill="#f6e3d2"/>
  <rect x="924" y="386" width="92" height="12" rx="6" fill="#c96c31"/>
  <rect x="924" y="410" width="64" height="12" rx="6" fill="#c96c31"/>
</svg>
